<?xml version="1.0" encoding="iso-8859-1"?>
<!-- Uploaded to: SVG Repo, www.svgrepo.com, Generator: SVG Repo Mixer Tools -->
<svg height="800px" width="800px" version="1.1" id="Capa_1" xmlns="http://www.w3.org/2000/svg" xmlns:xlink="http://www.w3.org/1999/xlink" 
	 viewBox="0 0 282.935 282.935" xml:space="preserve">
<g>
	<path style="fill:#010002;" d="M272.062,56.132h-46.091c-6.005,0-15.752,0.06-21.756,0.071c-1.746,0-3.557,0.005-5.309,0.011
		c-6.005,0.005-10.682-4.928-11.966-10.797c-6.07-27.734-35.43-26.292-35.43-26.292h-20.016c-27.038,0-34.669,15.316-36.67,26.271
		c-1.082,5.907-5.357,10.829-11.362,10.829h-4.737c-6.005,0-15.746-0.076-21.751-0.098c-12.657-0.044-33.434-0.06-46.091-0.065
		C4.873,56.061,0,60.929,0,66.94v45.884v94.324v45.721c0,6.005,4.873,10.878,10.878,10.878h45.15h11.819h136.368
		c6.005,0,15.752,0.038,21.756,0.049c12.657,0.022,33.428,0.027,46.085,0.027c6.005,0,10.878-4.868,10.878-10.878v-45.797v-94.335
		V67.01C282.94,61,278.072,56.132,272.062,56.132z M94.341,234c0,6.005-4.226,10.878-9.431,10.878
		c-5.211,0-9.437-4.873-9.437-10.878V85.96c0-6.005,4.226-10.878,9.437-10.878s9.431,4.873,9.431,10.878V234z M158.929,56.246
		H141.47h-0.957h-17.454c-6.005,0-11.319-5.173-8.572-10.519c2.361-4.591,7.093-8.953,16.567-8.953h9.464h0.957h9.464
		c9.475,0,14.207,4.357,16.567,8.953C170.243,51.074,164.934,56.246,158.929,56.246z M207.479,234c0,6.005-4.21,10.878-9.404,10.878
		s-9.404-4.873-9.404-10.878V85.96c0-6.005,4.21-10.878,9.404-10.878s9.404,4.873,9.404,10.878V234z"/>
</g>
</svg>