<?xml version="1.0" encoding="utf-8"?><!-- Uploaded to: SVG Repo, www.svgrepo.com, Generator: SVG Repo Mixer Tools -->
<svg width="800px" height="800px" viewBox="0 0 400 400" fill="none" xmlns="http://www.w3.org/2000/svg">
<path d="M256.592 68.4028C287.504 26.4089 343.885 94.0257 304.266 121.703C273.48 143.212 237.336 109.687 251.79 80.5165" stroke="#000000" stroke-opacity="0.9" stroke-width="16" stroke-linecap="round" stroke-linejoin="round"/>
<path d="M270.919 154.904C271.704 184.776 272.096 202.276 272.096 207.405C272.096 212.534 269.321 227.985 263.77 253.76L261.92 294.816L227.694 334.407L242.494 343.612" stroke="#000000" stroke-opacity="0.9" stroke-width="16" stroke-linecap="round" stroke-linejoin="round"/>
<path d="M273.483 153.517L304.383 227.172C303.627 230.122 308.128 233.321 317.885 236.77" stroke="#000000" stroke-opacity="0.9" stroke-width="16" stroke-linecap="round" stroke-linejoin="round"/>
<path d="M273.483 154.904L226.674 174.179L206.119 211.961C199.227 208.629 195.78 208.629 195.78 211.961C195.78 215.294 195.78 218.938 195.78 222.895" stroke="#000000" stroke-opacity="0.9" stroke-width="16" stroke-linecap="round" stroke-linejoin="round"/>
<path d="M265.158 243.708C279.411 266.336 286.843 279.903 287.453 284.408C288.064 288.913 291.667 308.648 298.264 343.612L309.56 343.275" stroke="#000000" stroke-opacity="0.9" stroke-width="16" stroke-linecap="round" stroke-linejoin="round"/>
<path opacity="0.503384" d="M197.167 222.895L116.689 322.799" stroke="#000000" stroke-opacity="0.9" stroke-width="14" stroke-linecap="round" stroke-linejoin="round"/>
<path opacity="0.503384" d="M172.191 254.622C153.919 240.077 142.32 232.804 137.395 232.804C130.007 232.804 126.437 230.3 117.071 243.178C110.827 251.763 99.7315 266.001 83.7836 285.893C81.4055 291.07 81.4055 294.722 83.7836 296.851C86.1618 298.98 97.4067 307.629 117.518 322.799" stroke="#000000" stroke-opacity="0.9" stroke-width="14" stroke-linecap="round" stroke-linejoin="round"/>
<path d="M125.369 328.349C126.863 333.061 127.11 338.663 123.552 341.524C117.685 346.242 104.917 347.935 107.26 334.874" stroke="#000000" stroke-opacity="0.9" stroke-width="16" stroke-linecap="round" stroke-linejoin="round"/>
</svg>