<?xml version="1.0" encoding="iso-8859-1"?>
<!-- Uploaded to: SVG Repo, www.svgrepo.com, Generator: SVG Repo Mixer Tools -->
<!DOCTYPE svg PUBLIC "-//W3C//DTD SVG 1.1//EN" "http://www.w3.org/Graphics/SVG/1.1/DTD/svg11.dtd">
<svg fill="#000000" height="800px" width="800px" version="1.1" id="Capa_1" xmlns="http://www.w3.org/2000/svg" xmlns:xlink="http://www.w3.org/1999/xlink" 
	 viewBox="0 0 199.481 199.481" xml:space="preserve">
<path d="M142.456,199.481h-85.78c-10.784,0-19.811-7.674-21.905-17.848h-4.092c-6.722,0-12.189-5.468-12.189-12.189v-38.7
	c0-6.721,5.468-12.189,12.189-12.189h3.634V79.294c-4.58-1.734-7.845-6.166-7.845-11.346V34.055c0-6.687,5.44-12.127,12.127-12.127
	h9.756v-3.894c0-5.422,4.411-9.833,9.834-9.833h17.423c5.422,0,9.833,4.411,9.833,9.833v3.894h26.734V9.833
	c0-5.422,4.411-9.833,9.833-9.833h17.423c5.423,0,9.834,4.411,9.834,9.833v12.095h11.272c6.687,0,12.127,5.44,12.127,12.127v33.893
	c0,5.18-3.265,9.612-7.845,11.346v39.261h3.984c6.722,0,12.189,5.468,12.189,12.189v38.7c0,6.721-5.468,12.189-12.189,12.189h-4.442
	C162.266,191.807,153.24,199.481,142.456,199.481z M39.512,179.756c1.275,8.327,8.486,14.725,17.163,14.725h85.78
	c9.574,0,17.363-7.79,17.363-17.364V80.075h-49.196v5.166c0,5.802-4.721,10.522-10.522,10.522h-1.069
	c-5.802,0-10.522-4.72-10.522-10.522v-5.166H39.312v39.833c0.178,0.344,0.278,0.734,0.278,1.147v58.079
	C39.59,179.348,39.563,179.557,39.512,179.756z M164.891,176.633h3.912c3.964,0,7.189-3.225,7.189-7.189v-38.7
	c0-3.964-3.226-7.189-7.189-7.189h-3.912V176.633z M30.678,123.555c-3.964,0-7.189,3.225-7.189,7.189v38.7
	c0,3.964,3.226,7.189,7.189,7.189h3.634v-53.079H30.678z M93.508,78.807v6.434c0,3.045,2.478,5.522,5.522,5.522h1.069
	c3.045,0,5.522-2.478,5.522-5.522v-6.434h-3.557v3.383c0,1.381-1.119,2.5-2.5,2.5s-2.5-1.119-2.5-2.5v-3.383H93.508z
	 M110.623,75.075h49.914c3.93,0,7.127-3.197,7.127-7.127V34.055c0-3.93-3.197-7.127-7.127-7.127H38.594
	c-3.93,0-7.127,3.197-7.127,7.127v33.893c0,3.93,3.197,7.127,7.127,7.127h49.914v-5.166c0-5.802,4.721-10.522,10.522-10.522h1.069
	c5.802,0,10.522,4.72,10.522,10.522V75.075z M99.566,73.807h6.057v-3.898c0-3.045-2.478-5.522-5.522-5.522h-1.069
	c-3.045,0-5.522,2.478-5.522,5.522v3.898H99.566z M117.174,21.928h27.09V9.833c0-2.665-2.169-4.833-4.834-4.833h-17.423
	c-2.665,0-4.833,2.168-4.833,4.833V21.928z M53.35,21.928h27.09v-3.894c0-2.665-2.168-4.833-4.833-4.833H58.184
	c-2.665,0-4.834,2.168-4.834,4.833V21.928z M126.24,190.547H72.891c-7.167,0-12.997-5.83-12.997-12.996V127.5
	c0-8.056,6.554-14.61,14.61-14.61h50.122c8.057,0,14.61,6.554,14.61,14.61v50.051C139.237,184.717,133.407,190.547,126.24,190.547z
	 M64.894,145.284v32.267c0,4.409,3.588,7.996,7.997,7.996h53.349c4.409,0,7.997-3.587,7.997-7.996v-32.267H64.894z M64.894,140.284
	h69.343V127.5c0-5.299-4.312-9.61-9.61-9.61H74.504c-5.299,0-9.61,4.311-9.61,9.61V140.284z"/>
</svg>